<svg xmlns="http://www.w3.org/2000/svg" xmlns:xlink="http://www.w3.org/1999/xlink" width="1289" height="818" viewBox="0 0 1289 818">
  <defs>
    <filter id="Rectangle_49" x="0" y="0" width="93" height="818" filterUnits="userSpaceOnUse">
      <feOffset dy="3" input="SourceAlpha"/>
      <feGaussianBlur stdDeviation="3" result="blur"/>
      <feFlood flood-opacity="0.161"/>
      <feComposite operator="in" in2="blur"/>
      <feComposite in="SourceGraphic"/>
    </filter>
    <filter id="Intersection_1" x="40.542" y="193.264" width="83.204" height="82.42" filterUnits="userSpaceOnUse">
      <feOffset dx="-4" input="SourceAlpha"/>
      <feGaussianBlur stdDeviation="3" result="blur-2"/>
      <feFlood flood-opacity="0.09"/>
      <feComposite operator="in" in2="blur-2"/>
      <feComposite in="SourceGraphic"/>
    </filter>
  </defs>
  <g id="Groupe_157" data-name="Groupe 157" transform="translate(9 6)">
    <g id="Groupe_156" data-name="Groupe 156">
      <g id="Rectangle_52" data-name="Rectangle 52" fill="#fff" stroke="#707070" stroke-width="1">
        <rect width="1280" height="800" stroke="none"/>
        <rect x="0.5" y="0.5" width="1279" height="799" fill="none"/>
      </g>
      <g transform="matrix(1, 0, 0, 1, -9, -6)" filter="url(#Rectangle_49)">
        <path id="Rectangle_49-2" data-name="Rectangle 49" d="M0,0H55A20,20,0,0,1,75,20V780a20,20,0,0,1-20,20H0a0,0,0,0,1,0,0V0A0,0,0,0,1,0,0Z" transform="translate(9 6)" fill="#fcf3ea"/>
      </g>
    </g>
    <g transform="matrix(1, 0, 0, 1, -9, -6)" filter="url(#Intersection_1)">
      <path id="Intersection_1-2" data-name="Intersection 1" d="M25.515,52.536,20.663,50.3A23.522,23.522,0,0,1,9.04,19.806,22.038,22.038,0,0,1,38.66,8.345l4.853,2.239A23.524,23.524,0,0,1,55.136,41.075,22.021,22.021,0,0,1,25.515,52.536Z" transform="matrix(0.91, -0.41, 0.41, 0.91, 44.45, 219.72)" fill="#5499d0"/>
    </g>
  </g>
</svg>
