<svg xmlns="http://www.w3.org/2000/svg" xmlns:xlink="http://www.w3.org/1999/xlink" width="237.653" height="343.357" viewBox="0 0 237.653 343.357">
  <defs>
    <filter id="Path_7" x="80.449" y="51.345" width="55.804" height="43.748" filterUnits="userSpaceOnUse">
      <feOffset input="SourceAlpha"/>
      <feGaussianBlur stdDeviation="3.082" result="blur"/>
      <feFlood flood-color="#83d3f4" flood-opacity="0"/>
      <feComposite operator="in" in2="blur"/>
      <feComposite in="SourceGraphic"/>
    </filter>
    <filter id="Path_8" x="80.449" y="178.558" width="55.804" height="43.747" filterUnits="userSpaceOnUse">
      <feOffset input="SourceAlpha"/>
      <feGaussianBlur stdDeviation="3.082" result="blur-2"/>
      <feFlood flood-color="#83d3f4" flood-opacity="0"/>
      <feComposite operator="in" in2="blur-2"/>
      <feComposite in="SourceGraphic"/>
    </filter>
    <filter id="Path_9" x="48.543" y="107.936" width="32.401" height="57.763" filterUnits="userSpaceOnUse">
      <feOffset input="SourceAlpha"/>
      <feGaussianBlur stdDeviation="3.082" result="blur-3"/>
      <feFlood flood-color="#83d3f4" flood-opacity="0"/>
      <feComposite operator="in" in2="blur-3"/>
      <feComposite in="SourceGraphic"/>
    </filter>
  </defs>
  <g id="Groupe_158" data-name="Groupe 158" transform="translate(-25.147 -261.05)">
    <path id="Path_126" data-name="Path 126" d="M-1427.017,1118.721c-17.024-9.883-35.228,6.466-56.111,50.39h62.3C-1410.44,1140.886-1412.529,1124.422-1427.017,1118.721Z" transform="translate(1235.718 2018.742) rotate(90)" fill="#5499d0"/>
    <g id="Group_85" data-name="Group 85" transform="translate(1120.84 1680.524) rotate(90)">
      <g id="Group_84" data-name="Group 84" transform="translate(-1419.474 858.039)">
        <path id="Path_4" data-name="Path 4" d="M1141.814,750.536c-.206-.2-.418-.4-.628-.593-.229-.224-.429-.427-.636-.624-18.916-18.17-53.239-21.119-84.314-21.611-31.425.5-66.122,3.525-84.9,22.215-14.2,13.157-19.706,34.422-21.862,56.676-.8,8.286-1.15,16.71-1.291,24.9a268.922,268.922,0,0,0,2.432,34.4c2.717,18.347,8.349,35.284,20.066,46.541.206.2.421.4.631.595.229.224.43.422.641.625,18.916,18.165,53.239,21.119,84.308,21.607,31.434-.5,66.122-3.524,84.906-22.209,12.581-11.662,18.332-29.695,20.978-49.142a277.255,277.255,0,0,0,2.169-32.445c-.128-7.649-.435-15.5-1.129-23.262C1161.177,785.724,1155.877,764.036,1141.814,750.536ZM991.4,863.294c-9.6.348-14.68-7.17-14.442-21.392-.236-14.223,4.837-21.744,14.442-21.392,9.61-.352,14.684,7.17,14.446,21.392.244,14.218-4.836,21.738-14.44,21.392Zm87.053,20.049a14.459,14.459,0,0,1-3.42,5.506c-4.271,4.445-11.9,5.162-18.779,5.276-6.848-.11-14.381-.815-18.722-5.167l-.268-.264a14.659,14.659,0,0,1-3.274-5.36,3.869,3.869,0,0,1,.458-3.53,3.826,3.826,0,0,1,3.135-1.637,3.88,3.88,0,0,1,3.508,2.319,8.518,8.518,0,0,0,1.686,2.543l.219.215c2.822,2.83,8.283,3.3,13.253,3.376,4.973-.079,10.488-.558,13.284-3.463a8.364,8.364,0,0,0,1.821-2.676,3.824,3.824,0,0,1,7.091,2.86Zm42.594-20.049c-9.6.348-14.683-7.17-14.442-21.392-.238-14.223,4.842-21.744,14.442-21.392,9.611-.352,14.68,7.17,14.443,21.392.241,14.218-4.836,21.738-14.439,21.392Z" transform="translate(-919.362 -712.663)" fill="none" stroke="#fff" stroke-miterlimit="10" stroke-width="0.482"/>
        <path id="Path_5" data-name="Path 5" d="M1211.173,818.129l-.111-.233c-2.981-6.225-8.186-7.664-13.148-8-2.67-23.537-8.918-45.728-23.578-59.966-.233-.233-.473-.458-.711-.682-.255-.259-.49-.488-.724-.717-21.405-20.8-60.24-24.176-95.4-24.742-35.566.571-74.826,4.035-96.073,25.437-15.188,14.239-21.6,36.778-24.319,60.728-4.775.458-9.647,2.1-12.454,8.178-3.356,6.756-3.9,19.221-3.986,30.534.09,11.163.61,23.5,3.875,30.3l.111.221c.038.082.073.152.107.233,3.173,6.627,8.863,7.836,14.1,8.065,3.356,18.879,9.723,36.059,21.826,47.819.235.224.473.458.711.679.259.259.485.488.725.717,21.405,20.8,60.239,24.18,95.4,24.742,35.571-.571,74.826-4.035,96.078-25.433,12.568-11.789,19.119-29.269,22.547-48.524.133,0,.269.017.4.021,5.409-.186,11.385-1.318,14.616-8.312,3.356-6.756,3.9-19.229,3.986-30.538-.088-11.159-.61-23.492-3.875-30.3C1211.246,818.282,1211.208,818.2,1211.173,818.129Z" transform="translate(-940.667 -723.785)" fill="#5499d0"/>
        <path id="Path_6" data-name="Path 6" d="M1161.965,864.692c-2.651,19.447-8.4,37.481-20.983,49.137-18.779,18.689-53.471,21.717-84.906,22.214-31.075-.493-65.394-3.441-84.31-21.611-.21-.2-.412-.4-.641-.625-.211-.194-.421-.4-.627-.589-11.72-11.257-17.352-28.2-20.066-46.541a268.773,268.773,0,0,1-2.441-34.4c.14-8.2.491-16.617,1.3-24.9,2.151-22.254,7.659-43.517,21.857-56.676,18.779-18.69,53.471-21.721,84.9-22.214,31.074.493,65.394,3.441,84.313,21.607l.636.625c.215.2.421.4.631.6,14.06,13.5,19.363,35.188,21.369,57.675.694,7.759,1,15.613,1.132,23.262A278.936,278.936,0,0,1,1161.965,864.692Z" transform="translate(-919.893 -710.472)" fill="#fff"/>
        <g transform="matrix(0, -1, 1, 0, 0, 237.65)" filter="url(#Path_7)">
          <path id="Path_7-2" data-name="Path 7" d="M967.363,748.8c-8.39-.305-12.826,6.254-12.619,18.646-.207,12.393,4.23,18.949,12.619,18.646,8.39.305,12.831-6.254,12.623-18.646C980.194,755.058,975.756,748.5,967.363,748.8Z" transform="translate(875.8 -894.15) rotate(90)" fill="#5499d0"/>
        </g>
        <g transform="matrix(0, -1, 1, 0, 0, 237.65)" filter="url(#Path_8)">
          <path id="Path_8-2" data-name="Path 8" d="M996.9,748.8c-8.39-.305-12.828,6.254-12.62,18.646-.211,12.393,4.23,18.949,12.62,18.646,8.39.305,12.826-6.254,12.62-18.646C1009.725,755.058,1005.291,748.5,996.9,748.8Z" transform="translate(875.8 -796.47) rotate(90)" fill="#5499d0"/>
        </g>
        <g transform="matrix(0, -1, 1, 0, 0, 237.65)" filter="url(#Path_9)">
          <path id="Path_9-2" data-name="Path 9" d="M1003.606,761.9a3.379,3.379,0,0,0-3.069,2.017,7.294,7.294,0,0,1-1.593,2.333c-2.441,2.531-7.261,2.95-11.607,3.019-4.342-.069-9.113-.476-11.58-2.943l-.192-.188a7.425,7.425,0,0,1-1.474-2.217,3.391,3.391,0,0,0-3.072-2.021,3.347,3.347,0,0,0-3.138,4.5,12.775,12.775,0,0,0,2.862,4.672l.235.23c3.794,3.794,10.373,4.407,16.359,4.5,6.015-.1,12.674-.724,16.41-4.6a12.6,12.6,0,0,0,2.988-4.8,3.341,3.341,0,0,0-3.13-4.511Z" transform="translate(833.6 -850.49) rotate(90)" fill="#5499d0"/>
        </g>
      </g>
    </g>
  </g>
</svg>
